<mxfile host="app.diagrams.net" agent="Mozilla/5.0 (Windows NT 10.0; Win64; x64) AppleWebKit/537.36 (KHTML, like Gecko) Chrome/131.0.0.0 Safari/537.36 Edg/131.0.0.0" version="25.0.3">
  <diagram name="Página-1" id="1t1qk8D-UIFoVEn3kqQp">
    <mxGraphModel dx="1090" dy="596" grid="1" gridSize="10" guides="1" tooltips="1" connect="1" arrows="1" fold="1" page="1" pageScale="1" pageWidth="827" pageHeight="1169" math="0" shadow="0">
      <root>
        <mxCell id="0" />
        <mxCell id="1" parent="0" />
        <mxCell id="V_i6t_GGnZHZgOv48OWF-7" value="" style="edgeStyle=orthogonalEdgeStyle;rounded=0;orthogonalLoop=1;jettySize=auto;html=1;entryX=0;entryY=0.5;entryDx=0;entryDy=0;" edge="1" parent="1" source="V_i6t_GGnZHZgOv48OWF-1" target="V_i6t_GGnZHZgOv48OWF-3">
          <mxGeometry relative="1" as="geometry">
            <mxPoint x="130" y="189.47" as="sourcePoint" />
            <mxPoint x="240" y="189.47" as="targetPoint" />
          </mxGeometry>
        </mxCell>
        <mxCell id="V_i6t_GGnZHZgOv48OWF-1" value="Usuário" style="shape=umlActor;verticalLabelPosition=bottom;verticalAlign=top;html=1;outlineConnect=0;" vertex="1" parent="1">
          <mxGeometry x="100" y="170" width="30" height="60" as="geometry" />
        </mxCell>
        <mxCell id="V_i6t_GGnZHZgOv48OWF-2" value="Criar conta" style="ellipse;whiteSpace=wrap;html=1;" vertex="1" parent="1">
          <mxGeometry x="240" y="40" width="105" height="70" as="geometry" />
        </mxCell>
        <mxCell id="V_i6t_GGnZHZgOv48OWF-20" value="" style="edgeStyle=orthogonalEdgeStyle;rounded=0;orthogonalLoop=1;jettySize=auto;html=1;" edge="1" parent="1" source="V_i6t_GGnZHZgOv48OWF-3" target="V_i6t_GGnZHZgOv48OWF-18">
          <mxGeometry relative="1" as="geometry" />
        </mxCell>
        <mxCell id="V_i6t_GGnZHZgOv48OWF-3" value="Acessar conta" style="ellipse;whiteSpace=wrap;html=1;" vertex="1" parent="1">
          <mxGeometry x="240" y="165" width="105" height="70" as="geometry" />
        </mxCell>
        <mxCell id="V_i6t_GGnZHZgOv48OWF-5" value="Navegar no site" style="ellipse;whiteSpace=wrap;html=1;" vertex="1" parent="1">
          <mxGeometry x="240" y="290" width="105" height="70" as="geometry" />
        </mxCell>
        <mxCell id="V_i6t_GGnZHZgOv48OWF-8" value="" style="endArrow=classic;html=1;rounded=0;" edge="1" parent="1" source="V_i6t_GGnZHZgOv48OWF-1" target="V_i6t_GGnZHZgOv48OWF-2">
          <mxGeometry width="50" height="50" relative="1" as="geometry">
            <mxPoint x="130" y="180" as="sourcePoint" />
            <mxPoint x="180" y="130" as="targetPoint" />
          </mxGeometry>
        </mxCell>
        <mxCell id="V_i6t_GGnZHZgOv48OWF-9" value="" style="endArrow=classic;html=1;rounded=0;entryX=0;entryY=0.333;entryDx=0;entryDy=0;entryPerimeter=0;" edge="1" parent="1" source="V_i6t_GGnZHZgOv48OWF-1" target="V_i6t_GGnZHZgOv48OWF-5">
          <mxGeometry width="50" height="50" relative="1" as="geometry">
            <mxPoint x="150" y="260" as="sourcePoint" />
            <mxPoint x="200" y="210" as="targetPoint" />
          </mxGeometry>
        </mxCell>
        <mxCell id="V_i6t_GGnZHZgOv48OWF-10" value="" style="endArrow=classic;html=1;rounded=0;exitX=0.5;exitY=1;exitDx=0;exitDy=0;" edge="1" parent="1" source="V_i6t_GGnZHZgOv48OWF-2" target="V_i6t_GGnZHZgOv48OWF-3">
          <mxGeometry width="50" height="50" relative="1" as="geometry">
            <mxPoint x="350" y="280" as="sourcePoint" />
            <mxPoint x="400" y="230" as="targetPoint" />
          </mxGeometry>
        </mxCell>
        <mxCell id="V_i6t_GGnZHZgOv48OWF-12" value="Visualizar item" style="ellipse;whiteSpace=wrap;html=1;" vertex="1" parent="1">
          <mxGeometry x="380" y="290" width="105" height="70" as="geometry" />
        </mxCell>
        <mxCell id="V_i6t_GGnZHZgOv48OWF-13" value="Colocar item no carrinho" style="ellipse;whiteSpace=wrap;html=1;" vertex="1" parent="1">
          <mxGeometry x="520" y="290" width="100" height="70" as="geometry" />
        </mxCell>
        <mxCell id="V_i6t_GGnZHZgOv48OWF-15" value="" style="endArrow=classic;html=1;rounded=0;exitX=1;exitY=0.5;exitDx=0;exitDy=0;entryX=0;entryY=0.5;entryDx=0;entryDy=0;" edge="1" parent="1" source="V_i6t_GGnZHZgOv48OWF-5" target="V_i6t_GGnZHZgOv48OWF-12">
          <mxGeometry width="50" height="50" relative="1" as="geometry">
            <mxPoint x="350" y="280" as="sourcePoint" />
            <mxPoint x="400" y="230" as="targetPoint" />
          </mxGeometry>
        </mxCell>
        <mxCell id="V_i6t_GGnZHZgOv48OWF-16" value="" style="endArrow=classic;html=1;rounded=0;entryX=0;entryY=0.5;entryDx=0;entryDy=0;exitX=1;exitY=0.5;exitDx=0;exitDy=0;" edge="1" parent="1" source="V_i6t_GGnZHZgOv48OWF-12" target="V_i6t_GGnZHZgOv48OWF-13">
          <mxGeometry width="50" height="50" relative="1" as="geometry">
            <mxPoint x="460" y="345" as="sourcePoint" />
            <mxPoint x="491" y="310" as="targetPoint" />
          </mxGeometry>
        </mxCell>
        <mxCell id="V_i6t_GGnZHZgOv48OWF-17" value="" style="endArrow=classic;html=1;rounded=0;exitX=0;exitY=1;exitDx=0;exitDy=0;entryX=1;entryY=1;entryDx=0;entryDy=0;" edge="1" parent="1" source="V_i6t_GGnZHZgOv48OWF-13" target="V_i6t_GGnZHZgOv48OWF-5">
          <mxGeometry width="50" height="50" relative="1" as="geometry">
            <mxPoint x="350" y="380" as="sourcePoint" />
            <mxPoint x="400" y="330" as="targetPoint" />
            <Array as="points">
              <mxPoint x="430" y="380" />
            </Array>
          </mxGeometry>
        </mxCell>
        <mxCell id="V_i6t_GGnZHZgOv48OWF-23" value="" style="edgeStyle=orthogonalEdgeStyle;rounded=0;orthogonalLoop=1;jettySize=auto;html=1;" edge="1" parent="1" source="V_i6t_GGnZHZgOv48OWF-18" target="V_i6t_GGnZHZgOv48OWF-22">
          <mxGeometry relative="1" as="geometry" />
        </mxCell>
        <mxCell id="V_i6t_GGnZHZgOv48OWF-18" value="Visualizar carrinho" style="ellipse;whiteSpace=wrap;html=1;" vertex="1" parent="1">
          <mxGeometry x="385" y="165" width="100" height="70" as="geometry" />
        </mxCell>
        <mxCell id="V_i6t_GGnZHZgOv48OWF-19" value="" style="endArrow=classic;html=1;rounded=0;exitX=0;exitY=0;exitDx=0;exitDy=0;entryX=1;entryY=1;entryDx=0;entryDy=0;" edge="1" parent="1" source="V_i6t_GGnZHZgOv48OWF-13" target="V_i6t_GGnZHZgOv48OWF-18">
          <mxGeometry width="50" height="50" relative="1" as="geometry">
            <mxPoint x="550" y="215" as="sourcePoint" />
            <mxPoint x="600" y="165" as="targetPoint" />
          </mxGeometry>
        </mxCell>
        <mxCell id="V_i6t_GGnZHZgOv48OWF-25" value="" style="edgeStyle=orthogonalEdgeStyle;rounded=0;orthogonalLoop=1;jettySize=auto;html=1;" edge="1" parent="1" source="V_i6t_GGnZHZgOv48OWF-22" target="V_i6t_GGnZHZgOv48OWF-24">
          <mxGeometry relative="1" as="geometry" />
        </mxCell>
        <mxCell id="V_i6t_GGnZHZgOv48OWF-22" value="Comprar itens" style="ellipse;whiteSpace=wrap;html=1;" vertex="1" parent="1">
          <mxGeometry x="520" y="165" width="100" height="70" as="geometry" />
        </mxCell>
        <mxCell id="V_i6t_GGnZHZgOv48OWF-24" value="Selecionar forma de pagamento" style="ellipse;whiteSpace=wrap;html=1;" vertex="1" parent="1">
          <mxGeometry x="680" y="290" width="100" height="70" as="geometry" />
        </mxCell>
        <mxCell id="V_i6t_GGnZHZgOv48OWF-26" value="Crédito" style="ellipse;whiteSpace=wrap;html=1;" vertex="1" parent="1">
          <mxGeometry x="470" y="440" width="100" height="70" as="geometry" />
        </mxCell>
        <mxCell id="V_i6t_GGnZHZgOv48OWF-27" value="Boleto" style="ellipse;whiteSpace=wrap;html=1;" vertex="1" parent="1">
          <mxGeometry x="710" y="440" width="100" height="70" as="geometry" />
        </mxCell>
        <mxCell id="V_i6t_GGnZHZgOv48OWF-28" value="Pix" style="ellipse;whiteSpace=wrap;html=1;" vertex="1" parent="1">
          <mxGeometry x="590" y="440" width="100" height="70" as="geometry" />
        </mxCell>
        <mxCell id="V_i6t_GGnZHZgOv48OWF-29" value="Informar dados do cartão" style="ellipse;whiteSpace=wrap;html=1;" vertex="1" parent="1">
          <mxGeometry x="470" y="530" width="100" height="70" as="geometry" />
        </mxCell>
        <mxCell id="V_i6t_GGnZHZgOv48OWF-30" value="Gerar QR Code/Chave cópia e cola" style="ellipse;whiteSpace=wrap;html=1;" vertex="1" parent="1">
          <mxGeometry x="590" y="530" width="100" height="70" as="geometry" />
        </mxCell>
        <mxCell id="V_i6t_GGnZHZgOv48OWF-31" value="Gerar Boleto" style="ellipse;whiteSpace=wrap;html=1;" vertex="1" parent="1">
          <mxGeometry x="710" y="530" width="100" height="70" as="geometry" />
        </mxCell>
        <mxCell id="V_i6t_GGnZHZgOv48OWF-32" value="" style="endArrow=classic;html=1;rounded=0;exitX=0.5;exitY=1;exitDx=0;exitDy=0;entryX=0.5;entryY=0;entryDx=0;entryDy=0;" edge="1" parent="1" source="V_i6t_GGnZHZgOv48OWF-26" target="V_i6t_GGnZHZgOv48OWF-29">
          <mxGeometry width="50" height="50" relative="1" as="geometry">
            <mxPoint x="490" y="450" as="sourcePoint" />
            <mxPoint x="540" y="400" as="targetPoint" />
          </mxGeometry>
        </mxCell>
        <mxCell id="V_i6t_GGnZHZgOv48OWF-33" value="" style="endArrow=classic;html=1;rounded=0;exitX=0.5;exitY=1;exitDx=0;exitDy=0;entryX=0.5;entryY=0;entryDx=0;entryDy=0;" edge="1" parent="1" source="V_i6t_GGnZHZgOv48OWF-28" target="V_i6t_GGnZHZgOv48OWF-30">
          <mxGeometry width="50" height="50" relative="1" as="geometry">
            <mxPoint x="530" y="520" as="sourcePoint" />
            <mxPoint x="530" y="540" as="targetPoint" />
          </mxGeometry>
        </mxCell>
        <mxCell id="V_i6t_GGnZHZgOv48OWF-34" value="" style="endArrow=classic;html=1;rounded=0;exitX=0.5;exitY=1;exitDx=0;exitDy=0;entryX=0.5;entryY=0;entryDx=0;entryDy=0;" edge="1" parent="1" source="V_i6t_GGnZHZgOv48OWF-27" target="V_i6t_GGnZHZgOv48OWF-31">
          <mxGeometry width="50" height="50" relative="1" as="geometry">
            <mxPoint x="540" y="530" as="sourcePoint" />
            <mxPoint x="540" y="550" as="targetPoint" />
          </mxGeometry>
        </mxCell>
        <mxCell id="V_i6t_GGnZHZgOv48OWF-35" value="" style="endArrow=classic;html=1;rounded=0;exitX=0;exitY=1;exitDx=0;exitDy=0;entryX=0.5;entryY=0;entryDx=0;entryDy=0;" edge="1" parent="1" source="V_i6t_GGnZHZgOv48OWF-24" target="V_i6t_GGnZHZgOv48OWF-26">
          <mxGeometry width="50" height="50" relative="1" as="geometry">
            <mxPoint x="490" y="450" as="sourcePoint" />
            <mxPoint x="540" y="400" as="targetPoint" />
          </mxGeometry>
        </mxCell>
        <mxCell id="V_i6t_GGnZHZgOv48OWF-36" value="" style="endArrow=classic;html=1;rounded=0;exitX=0.5;exitY=1;exitDx=0;exitDy=0;entryX=0.5;entryY=0;entryDx=0;entryDy=0;" edge="1" parent="1" source="V_i6t_GGnZHZgOv48OWF-24" target="V_i6t_GGnZHZgOv48OWF-28">
          <mxGeometry width="50" height="50" relative="1" as="geometry">
            <mxPoint x="490" y="450" as="sourcePoint" />
            <mxPoint x="540" y="400" as="targetPoint" />
          </mxGeometry>
        </mxCell>
        <mxCell id="V_i6t_GGnZHZgOv48OWF-37" value="" style="endArrow=classic;html=1;rounded=0;exitX=1;exitY=1;exitDx=0;exitDy=0;entryX=0.5;entryY=0;entryDx=0;entryDy=0;" edge="1" parent="1" source="V_i6t_GGnZHZgOv48OWF-24" target="V_i6t_GGnZHZgOv48OWF-27">
          <mxGeometry width="50" height="50" relative="1" as="geometry">
            <mxPoint x="490" y="450" as="sourcePoint" />
            <mxPoint x="540" y="400" as="targetPoint" />
          </mxGeometry>
        </mxCell>
      </root>
    </mxGraphModel>
  </diagram>
</mxfile>
